<svg width="16" height="20" viewBox="0 0 16 20" fill="none" xmlns="http://www.w3.org/2000/svg">
<path fill-rule="evenodd" clip-rule="evenodd" d="M0.387101 8.7903L0.292893 8.70711C-0.0675905 8.34662 -0.0953204 7.77939 0.209704 7.3871L0.292893 7.29289L7.29289 0.292893L7.33685 0.251496L7.40469 0.196335L7.51594 0.124671L7.62866 0.0712254L7.73401 0.035845L7.8819 0.00690722L8 0L8.07524 0.00278783L8.20073 0.0202401L8.31214 0.0497382L8.42322 0.0936735L8.52071 0.145995L8.62545 0.219689L8.70711 0.292893L15.7071 7.29289C16.0976 7.68342 16.0976 8.31658 15.7071 8.70711C15.3466 9.06759 14.7794 9.09532 14.3871 8.7903L14.2929 8.70711L9 3.416V19C9 19.5523 8.55228 20 8 20C7.44772 20 7 19.5523 7 19V3.414L1.70711 8.70711C1.34662 9.06759 0.779392 9.09532 0.387101 8.7903L0.292893 8.70711L0.387101 8.7903Z" fill="#F1F1F1"/>
</svg>
